<svg xmlns="http://www.w3.org/2000/svg" xmlns:xlink="http://www.w3.org/1999/xlink" version="1.1" id="Layer_1" x="0px" y="0px" width="100px" height="100px" viewBox="0 0 100 100" style="enable-background:new 0 0 100 100;" xml:space="preserve">
<path d="M77.474,18.224c-1.642-8.018-3.984-16.927-5.969-12.817c-1.53,3.164-2.603,4.408-4.428,5.86  C61.892,9.834,55.731,8.847,50.495,8.73V8.708c-0.166,0-0.343,0.01-0.511,0.012c-0.168-0.002-0.345-0.012-0.511-0.012V8.73  c-5.236,0.117-11.397,1.104-16.582,2.536c-1.825-1.452-2.898-2.696-4.428-5.86c-1.985-4.109-4.327,4.8-5.969,12.817  c-2.696,9.17-3.028,33.939-3.021,34.379c0.12,7.423,3.938,13.744,5.065,15.452l10.812,25.917l-4.381-24.187l6.426,3.999l6.662-3.497  l5.905,3.593v0.027l0.022-0.014l0.022,0.014v-0.027l5.905-3.593l6.662,3.497L69,69.786l-4.381,24.187L75.43,68.056  c1.126-1.708,4.945-8.029,5.065-15.452C80.502,52.163,80.169,27.395,77.474,18.224z M29.283,56.154  c-2.943-0.93-5.344-7.184-1.347-5.934c3.996,1.252,11.187,8.252,11.187,8.252S32.224,57.084,29.283,56.154z M70.685,56.154  c-2.941,0.93-9.84,2.318-9.84,2.318s7.191-7,11.187-8.252C76.029,48.971,73.628,55.225,70.685,56.154z"/>
<polygon points="57.562,81.119 42.438,81.119 39.25,84.744 42.438,83.244 57.562,83.244 60.75,84.744 "/>
</svg>