<svg xmlns="http://www.w3.org/2000/svg" xmlns:xlink="http://www.w3.org/1999/xlink" version="1.1" id="Your_Icon" x="0px" y="0px" width="100px" height="100px" viewBox="0 0 100 100" enable-background="new 0 0 100 100" xml:space="preserve">
<path d="M86,35c0,0,0,0.104,0,0.046C86,15.587,70.096-0.074,50.639-0.074C31.181-0.074,14,15.534,14,34.992C14,35.049,14,35,14,35  l0,0v47.232v8.883v0.054v8.828l6.703-6.012l6.31,6.012l5.94-5.791l5.867,5.791l5.831-5.791l5.809,5.791l5.804-5.791l5.796,5.791  l5.795-5.791l5.794,5.791l5.59-6.027L85,99.997v-8.882v-0.054v-8.829L86,35L86,35z M39.89,44.07c-4.256,0-7.708-3.451-7.708-7.708  c0-4.258,3.452-7.709,7.708-7.709c4.258,0,7.708,3.451,7.708,7.709C47.598,40.619,44.147,44.07,39.89,44.07z M61.439,44.07  c-4.258,0-7.709-3.451-7.709-7.708c0-4.258,3.451-7.709,7.709-7.709c4.256,0,7.707,3.451,7.707,7.709  C69.146,40.619,65.695,44.07,61.439,44.07z"/>
</svg>