<svg xmlns="http://www.w3.org/2000/svg" xmlns:xlink="http://www.w3.org/1999/xlink" version="1.1" id="Layer_1" x="0px" y="0px" width="100px" height="100px" viewBox="0 0 100 100" style="enable-background:new 0 0 100 100;" xml:space="preserve">
<path d="M68.254,36.923C52.381,47.88,56.634,67.22,56.634,67.22S50.146,78.772,50,79.053c-0.146-0.28-6.634-11.833-6.634-11.833  s4.253-19.34-11.62-30.296C9.525,21.585,4.075,0,4.075,0s0.281,37.646,0.421,46.354c0.141,8.708,3.359,15.981,7.164,19.525  c3.083,2.87,12.22,8.147,12.22,8.147L34.275,96.5l-2.81-20.086l18.529,3.648c0,0.001-0.001,0.003-0.001,0.003L50,80.064l0.007,0.001  c0,0-0.001-0.002-0.001-0.003l18.529-3.648L65.725,96.5L76.12,74.027c0,0,9.137-5.277,12.22-8.147  c3.805-3.544,7.023-10.817,7.164-19.525C95.644,37.646,95.925,0,95.925,0S90.475,21.585,68.254,36.923z"/>
<g>
	<path style="fill:#FFFFFF;" d="M60.854,66.974c0,0,7.191-7,11.187-8.251c3.997-1.251,1.596,5.004-1.347,5.933   C67.752,65.585,60.854,66.974,60.854,66.974z"/>
	<path style="fill:#FFFFFF;" d="M39.146,66.974c0,0-7.191-7-11.187-8.251c-3.997-1.251-1.596,5.004,1.347,5.933   C32.248,65.585,39.146,66.974,39.146,66.974z"/>
</g>
<polygon points="57.562,85.625 42.438,85.625 39.25,89.25 42.438,87.75 57.562,87.75 60.75,89.25 "/>
</svg>