<svg xmlns="http://www.w3.org/2000/svg" xmlns:xlink="http://www.w3.org/1999/xlink" version="1.1" id="Layer_1" x="0px" y="0px" width="50px" height="50px" viewBox="0 0 50 50" enable-background="new 0 0 50 50" xml:space="preserve">
<g id="facebook_1_">
	<path fill="#000000" d="M23.853,4.181c-1.685,0.914-2.865,2.136-3.512,3.635c-0.605,1.409-0.901,3.403-0.901,6.108v0.92h-4.358   v8.799h4.358v23.489h10.472V23.644h5.865v-8.799h-5.865v-0.781c0-1.695,0.348-2.121,0.391-2.167   c0.225-0.242,0.753-0.375,1.482-0.375c1.041,0,2.151,0.136,3.298,0.411l1.329,0.317l1.546-7.968l-1.12-0.353   C32.299,2.503,27.06,2.441,23.853,4.181z M34.347,9.112c-2.477-0.403-4.812-0.247-5.971,1.001   c-0.736,0.788-1.093,2.079-1.093,3.949v3.407h5.868v3.55h-5.868v23.492H22.06V21.02h-4.356v-3.55h4.356v-3.546   c0-2.305,0.231-4.011,0.688-5.067c0.415-0.961,1.184-1.733,2.354-2.37c2.297-1.247,6.286-1.267,9.828-0.374L34.347,9.112z"/>
</g>
</svg>