<?xml version="1.0" encoding="utf-8"?>
<!-- Generator: Adobe Illustrator 16.0.0, SVG Export Plug-In . SVG Version: 6.00 Build 0)  -->
<!DOCTYPE svg PUBLIC "-//W3C//DTD SVG 1.1//EN" "http://www.w3.org/Graphics/SVG/1.1/DTD/svg11.dtd">
<svg version="1.1" id="Layer_1" xmlns="http://www.w3.org/2000/svg" xmlns:xlink="http://www.w3.org/1999/xlink" x="0px" y="0px"
	 width="72.304px" height="100px" viewBox="13.848 0 72.304 100" enable-background="new 13.848 0 72.304 100" xml:space="preserve"
	>
<g>
	<g>
		<path d="M61.547,85.982H38.454l-4.396,4.841l-6.912-3.062c-0.928,3.562-1.846,7.091-1.888,7.273
			c-0.07,0.308,0.118,1.793,2.68,3.501c2.562,1.709,4.195,2.284,7.698-0.278c3.501-2.561,4.996-2.882,6.875-2.882
			c1.88,0,3.501,0,3.501,0l0.738-1.682h6.437l0.8,1.682c0,0,1.621,0,3.501,0s3.374,0.321,6.874,2.882
			c3.503,2.562,5.136,1.987,7.699,0.278c2.561-1.708,2.75-3.194,2.679-3.501c-0.04-0.184-0.958-3.711-1.887-7.273l-6.913,3.062
			L61.547,85.982z"/>
	</g>
	<path d="M86.016,51.883L83.07,39.072l0.383-27.415c0,0-0.383-0.896-5.252-4.74C73.334,3.074,65.902,0,65.902,0l-5.509,16.904
		H39.606L34.096,0c0,0-7.43,3.074-12.298,6.917s-5.253,4.74-5.253,4.74l0.384,27.415l-2.945,12.811c0,0-0.898,5.51,1.922,9.224
		c2.818,3.715,11.657,14.221,11.914,18.319c0.255,4.101,0.128,5.381,0.128,5.381l5.573,2.269l3.907-4.19h10.24h4.664h10.239
		l3.907,4.19l5.571-2.269c0,0-0.127-1.28,0.129-5.381c0.258-4.1,9.097-14.604,11.915-18.319
		C86.913,57.393,86.016,51.883,86.016,51.883z M39.244,49.064c0,0-6.348,1.945-11.383,1.569c-5.14-0.384-8.547-2.209-8.35-3.363
		c0.197-1.153,2.009-6.106,2.009-6.106l17.764,5.594L39.244,49.064z M72.139,50.634c-5.035,0.376-11.382-1.569-11.382-1.569
		l-0.041-2.305l17.764-5.594c0,0,1.812,4.953,2.01,6.106C80.687,48.425,77.278,50.25,72.139,50.634z"/>
</g>
</svg>
