<svg xmlns="http://www.w3.org/2000/svg" xmlns:xlink="http://www.w3.org/1999/xlink" version="1.1" id="Your_Icon" x="0px" y="0px" width="100px" height="100px" viewBox="0 0 100 100" enable-background="new 0 0 100 100" xml:space="preserve">
<path d="M0.488,46.995c1.234,8.23,5.246,18.044,19.074,24.091c0.423,0.405,0.848,0.797,1.283,1.16  c2.564,2.14,5.069,3.225,7.441,3.225c0.004,0,0.007,0,0.01,0c2.587-0.003,5.326-1.292,8.137-3.835  c0.124-0.111,0.243-0.229,0.365-0.345c34.588,4.66,56.493-3.779,54.794-5.477c-13.688,0-23.953-3.423-18.328-10.454  c1.219-1.522,3.786-3.233,6.208-4.089c2.425-0.857,4.706-0.857,6.131-0.571c1.426,0.284,1.997,0.855,2.282,1.997  c0.285,1.141,0.285,2.852-3.139,6.272c3.424,0,6.274-1.141,8.556-3.421c0,2.28-0.57,4.562-1.71,6.843  c6.843-3.422,7.697-5.988,8.126-8.127c0.428-2.138,0.428-3.85-0.429-5.56c-0.854-1.71-2.565-3.422-5.133-4.562  c-2.564-1.141-5.986-1.71-8.839-2.281c-2.851-0.571-5.133-1.141-6.558-1.996c-1.425-0.855-1.996-1.997-1.425-3.137  c0.568-1.142,2.279-2.281,4.847-2.424c2.564-0.143,5.988,0.712,11.12,5.845c0-3.421-4.277-7.698-8.695-9.552  c-4.422-1.853-8.985-1.283-12.405,0.428c-3.422,1.711-5.702,4.562-7.983,6.843s-4.564,3.993-6.844,4.563  c-2.281,0.569-4.563,0-5.703-1.427c-1.141-1.425-1.141-3.705-0.856-6.272c0.286-2.567,0.856-5.418,0.715-7.272  c-0.144-1.853-0.999-2.709-2.853-3.991c-3.707-2.566-11.406-6.844-19.676-8.841c-4.135-0.997-8.41-1.425-12.832,0.357  c-4.419,1.781-8.981,5.774-12.118,11.192C0.916,31.596-0.795,38.439,0.488,46.995z M43.852,36.695  c-7.69,0.596-12.813,2.272-15.562,5.098c-2.751-2.826-7.874-4.503-15.567-5.099c0.16-0.406,0.33-0.801,0.514-1.191  c7.346-0.702,12.299-2.476,15.054-5.399c2.754,2.922,7.705,4.696,15.048,5.399C43.521,35.893,43.692,36.289,43.852,36.695z   M21.619,71.319c-3.603-3.007-7.512-8.435-11.006-15.281c-0.088-0.174-0.258-0.296-0.453-0.322c-0.193-0.027-0.39,0.04-0.523,0.184  c-0.466,0.495-0.998,0.756-1.541,0.756c-0.001,0-0.001,0-0.002,0c-0.544-0.001-1.077-0.263-1.543-0.761  c-1.061-1.134-1.274-2.283-1.273-3.771c0.001-1.489,0.215-2.638,1.278-3.77c0.466-0.495,0.997-0.756,1.54-0.756h0.003  c0.544,0,1.077,0.262,1.542,0.76c0.176,0.188,0.45,0.244,0.686,0.139c0.234-0.104,0.378-0.347,0.356-0.602  c-0.312-3.645-0.008-6.798,0.957-9.924c0.014-0.046,0.01-0.092,0.014-0.14C20.507,38.4,26.059,40.353,28.29,43.7  c2.255-3.384,7.901-5.344,16.928-5.886c0.001,0.022,0,0.045,0.007,0.067c0.926,3.003,1.244,6.034,1.005,9.481  c-0.058,0.056-0.117,0.11-0.173,0.171c-0.228,0.243-0.216,0.626,0.027,0.853c0.243,0.229,0.626,0.216,0.854-0.028  c0.466-0.498,1-0.76,1.544-0.76c0,0,0.001,0,0.002,0c0.542,0,1.074,0.26,1.54,0.756c1.062,1.131,1.276,2.28,1.277,3.77  c0.001,1.487-0.213,2.637-1.273,3.771c-0.465,0.498-0.999,0.76-1.543,0.761c-0.001,0-0.001,0-0.002,0  c-0.543,0-1.075-0.261-1.539-0.756c-0.135-0.144-0.333-0.211-0.525-0.184c-0.195,0.027-0.364,0.148-0.453,0.323  c-3.254,6.395-6.926,11.615-10.34,14.702c-2.583,2.334-5.049,3.521-7.329,3.522c-0.003,0-0.005,0-0.009,0  C26.205,74.264,23.962,73.272,21.619,71.319z"/>
</svg>